<?xml version="1.0" encoding="utf-8"?>
<!-- Generator: Adobe Illustrator 24.0.1, SVG Export Plug-In . SVG Version: 6.00 Build 0)  -->
<svg version="1.1" id="Capa_1" xmlns="http://www.w3.org/2000/svg" xmlns:xlink="http://www.w3.org/1999/xlink" x="0px" y="0px"
	 viewBox="0 0 500 500" style="enable-background:new 0 0 500 500;" xml:space="preserve">
<style type="text/css">
	.st0{fill-rule:evenodd;clip-rule:evenodd;fill:#FFFFFF;}
</style>
<g>
	<path class="st0" d="M209.3,264.2c-5.3-4-12.4-6-21.2-6H144V309h43.3v0.1c4,0,7.8-0.4,11.4-1.2c3.6-0.8,6.9-2.1,9.6-3.9
		s5-4.2,6.6-7.4c1.6-3.1,2.4-7.1,2.4-12C217.3,275.1,214.6,268.3,209.3,264.2z"/>
	<path class="st0" d="M202.9,225.4c4.7-3.4,6.9-9,6.9-16.8c0-4.3-0.8-7.8-2.3-10.6c-1.6-2.8-3.6-4.9-6.3-6.4
		c-2.6-1.6-5.5-2.7-8.9-3.2c-3.3-0.7-6.9-0.9-10.4-0.9h-38v43.1H185C192.2,230.6,198.2,228.9,202.9,225.4z"/>
	<path class="st0" d="M250,30C128.5,30,30,128.5,30,250s98.5,220,220,220s220-98.5,220-220S371.5,30,250,30z M299.1,168.4h74.8v18.2
		h-74.8V168.4z M252.3,311.1c-3.6,6.9-8.5,12.4-14.6,16.7c-6.1,4.3-13.1,7.5-21,9.6c-7.8,2.1-15.8,3.1-24.1,3.1h-89.4V156.1h87.1
		c8.8,0,16.8,0.8,24.1,2.3c7.2,1.5,13.4,4.1,18.6,7.6c5.1,3.5,9.2,8.2,12,14.1c2.8,5.8,4.2,13.1,4.2,21.6c0,9.3-2.1,17-6.3,23.2
		s-10.5,11.3-18.8,15.2c11.4,3.3,19.8,9,25.3,17.2c5.6,8.2,8.3,18.1,8.3,29.6C257.7,296.2,255.9,304.3,252.3,311.1z M402.9,282.5
		h-96.4c0.1,10.6,3.7,20.6,9.2,26c5.5,5.4,13.4,8.1,23.7,8.1c7.4,0,13.8-1.9,19.2-5.6c5.3-3.7,8.5-7.7,9.8-11.8h32.3
		c-5.2,16.1-13.1,27.5-23.8,34.5c-10.6,6.9-23.6,10.4-38.7,10.4c-10.5,0-20-1.7-28.5-5.1c-8.5-3.4-15.6-8.2-21.6-14.4
		c-5.8-6.2-10.3-13.6-13.6-22.3c-3.2-8.6-4.8-18.1-4.8-28.5c0-10,1.7-19.3,4.9-27.9c3.3-8.6,7.9-16.1,14-22.4
		c6.1-6.3,13.3-11.3,21.6-14.9c8.4-3.6,17.6-5.4,27.9-5.4c11.3,0,21.2,2.2,29.7,6.6c8.5,4.4,15.4,10.3,20.8,17.7
		c5.4,7.4,9.3,15.9,11.7,25.3C402.7,262.3,403.5,272.2,402.9,282.5z"/>
	<path class="st0" d="M337,230.9c-5.9,0-10.7,1-14.6,3c-3.8,2-6.9,4.5-9.3,7.4c-2.4,3-4,6.1-4.9,9.4c-0.9,3.2-1.5,6.2-1.7,8.8h59.7
		c-0.8-9.4-4-16.3-8.4-21.2C353.4,233.5,346.1,230.9,337,230.9z"/>
</g>
</svg>
