<?xml version="1.0" encoding="utf-8"?>
<!-- Generator: Adobe Illustrator 24.0.1, SVG Export Plug-In . SVG Version: 6.00 Build 0)  -->
<svg version="1.1" id="Capa_1" xmlns="http://www.w3.org/2000/svg" xmlns:xlink="http://www.w3.org/1999/xlink" x="0px" y="0px"
	 viewBox="0 0 500 500" style="enable-background:new 0 0 500 500;" xml:space="preserve">
<style type="text/css">
	.st0{fill:#FFFFFF;}
</style>
<g>
	<circle class="st0" cx="250" cy="250" r="46.2"/>
	<path class="st0" d="M358,168.3c-2.6-6.4-5.6-11.1-10.4-15.9c-4.8-4.9-9.4-7.9-15.9-10.4c-4.9-1.9-12.2-4.2-25.7-4.8
		c-14.6-0.7-19-0.8-56-0.8s-41.4,0.2-56,0.8c-13.5,0.6-20.8,2.9-25.7,4.8c-6.4,2.6-11.1,5.6-15.9,10.4c-4.9,4.8-7.9,9.4-10.4,15.9
		c-1.9,4.9-4.2,12.2-4.8,25.7c-0.7,14.6-0.8,19-0.8,56s0.1,41.4,0.8,56c0.6,13.5,2.9,20.8,4.8,25.7c2.6,6.4,5.6,11.1,10.4,15.9
		c4.8,4.9,9.4,7.9,15.9,10.4c4.9,1.9,12.2,4.2,25.7,4.8c14.6,0.7,19,0.8,56,0.8s41.4-0.1,56-0.8c13.5-0.6,20.8-2.9,25.7-4.8
		c6.4-2.6,11.1-5.6,15.9-10.4c4.9-4.8,7.9-9.4,10.4-15.9c1.9-4.9,4.2-12.2,4.8-25.7c0.7-14.6,0.8-19,0.8-56s-0.1-41.4-0.8-56
		C362.2,180.5,359.9,173.2,358,168.3z M250,321.1c-39.3,0-71.1-31.8-71.1-71.1s31.8-71.1,71.1-71.1s71.1,31.8,71.1,71.1
		C321.1,289.3,289.3,321.1,250,321.1z M323.9,192.7c-9.2,0-16.6-7.4-16.6-16.6c0-9.2,7.4-16.6,16.6-16.6c9.2,0,16.6,7.4,16.6,16.6
		C340.5,185.3,333.1,192.7,323.9,192.7z"/>
	<path class="st0" d="M250,30C128.5,30,30,128.5,30,250s98.5,220,220,220s220-98.5,220-220S371.5,30,250,30z M387.6,307
		c-0.6,14.7-3,24.8-6.4,33.6c-3.6,9.1-8.3,16.8-16,24.5s-15.4,12.5-24.5,16c-8.8,3.4-18.9,5.7-33.6,6.4c-14.8,0.6-19.5,0.8-57.1,0.8
		c-37.6,0-42.3-0.1-57.1-0.8c-14.7-0.6-24.8-3-33.6-6.4c-9.1-3.6-16.8-8.3-24.5-16s-12.5-15.4-16-24.5c-3.4-8.8-5.7-18.9-6.4-33.6
		c-0.6-14.8-0.8-19.5-0.8-57.1c0-37.6,0.1-42.3,0.8-57.1c0.6-14.7,3-24.8,6.4-33.6c3.6-9.1,8.3-16.8,16-24.5s15.4-12.5,24.5-16
		c8.8-3.4,18.9-5.7,33.6-6.4c14.8-0.6,19.5-0.8,57.1-0.8c37.6,0,42.3,0.1,57.1,0.8c14.7,0.6,24.8,3,33.6,6.4
		c9.1,3.6,16.8,8.3,24.5,16s12.5,15.4,16,24.5c3.4,8.8,5.7,18.9,6.4,33.6c0.6,14.8,0.8,19.5,0.8,57.1
		C388.4,287.5,388.3,292.2,387.6,307z"/>
</g>
</svg>
