<?xml version="1.0" encoding="utf-8"?>
<!-- Generator: Adobe Illustrator 24.0.1, SVG Export Plug-In . SVG Version: 6.00 Build 0)  -->
<svg version="1.1" id="Capa_1" xmlns="http://www.w3.org/2000/svg" xmlns:xlink="http://www.w3.org/1999/xlink" x="0px" y="0px"
	 viewBox="0 0 500 500" style="enable-background:new 0 0 500 500;" xml:space="preserve">
<style type="text/css">
	.st0{fill:#FFFFFF;}
</style>
<path class="st0" d="M250,30C128.5,30,30,128.5,30,250s98.5,220,220,220s220-98.5,220-220S371.5,30,250,30z M177.4,370.2
	c-15.6-0.2-31.3-0.1-47,0c-2.5,0-3.3-0.6-3.3-3.2c0.1-55.8,0.1-111.5,0-167.3c0-2.3,0.6-3.1,3-3.1c15.9,0.1,31.8,0.1,47.6,0
	c3,0,3.5,1.2,3.5,3.8c0,27.7,0,55.4,0,83.2c0,27.5,0,55.1,0.1,82.6C181.3,369.3,180.6,370.2,177.4,370.2z M154.3,172.7
	c-17,0-31.2-14.1-31.2-31.1c-0.1-17.2,14.1-31.4,31.3-31.4c17,0,31.1,14,31.2,31.1C185.6,158.6,171.6,172.7,154.3,172.7z
	 M383.8,366.7c0,2.8-0.8,3.6-3.6,3.6c-15.7-0.1-31.3-0.1-47,0c-2.8,0-3.3-0.8-3.3-3.4c0.1-28.9,0.1-57.8,0-86.8
	c0-7.2-0.5-14.5-2.5-21.5c-3.7-13-13-19.6-26.6-18.9c-18.6,1-28.2,10.2-30.6,29.1c-0.6,4.5-0.8,9-0.8,13.6c0,28.1,0,56.2,0.1,84.4
	c0,2.8-0.7,3.6-3.6,3.6c-15.8-0.1-31.5-0.1-47.3,0c-2.5,0-3.3-0.7-3.3-3.2c0.1-55.7,0.1-111.4,0-167c0-2.8,0.9-3.4,3.5-3.4
	c15,0.1,30,0.1,44.9,0c2.8,0,3.5,0.9,3.4,3.5c-0.2,6.4-0.1,13-0.1,19.7c3.6-4.1,6.6-8.2,10.3-11.7c11.4-10.8,24.9-16.2,40.7-16
	c8.7,0.1,17.2,0.7,25.6,3.1c19.1,5.5,30.2,18.7,35.5,37.3c4,14,4.7,28.4,4.7,42.8C383.9,305.9,383.7,336.3,383.8,366.7z"/>
</svg>
